<svg width="32" height="32" viewBox="0 0 32 32" fill="none" xmlns="http://www.w3.org/2000/svg">
<path d="M30 16C30 30 30 30 16 30C2 30 2 30 2 16C2 2 2 2 16 2C30 2 30 2 30 16Z" fill="white"/>
<mask id="mask0_75_252" style="mask-type:alpha" maskUnits="userSpaceOnUse" x="2" y="2" width="28" height="28">
<path d="M30 16C30 30 30 30 16 30C2 30 2 30 2 16C2 2 2 2 16 2C30 2 30 2 30 16Z" fill="white"/>
</mask>
<g mask="url(#mask0_75_252)">
<g filter="url(#filter0_d_75_252)">
<path d="M48.9995 8.98039C49.0508 8.40465 45.4716 6.11381 30.7438 1.55637C12.3342 -4.14043 13.5666 7.22287 8.86792 12.7985C4.16922 18.374 -11.1208 18.4043 -13.1621 23.586C-15.2033 28.7677 -22.9446 28.798 -13.1621 33.7372C-5.33602 37.6886 19.3694 38.1916 30.7438 37.9492L48.9995 8.98039Z" fill="#23CE6B"/>
</g>
<g filter="url(#filter1_d_75_252)">
<path d="M48.9995 11.5077C49.0447 10.9623 45.8929 8.79203 32.9237 4.47446C16.7122 -0.922507 17.7975 9.84272 13.6598 15.1249C9.52215 20.407 -3.94221 20.4357 -5.73972 25.3446C-7.53723 30.2536 -14.3542 30.2823 -5.73972 34.9616C1.15186 38.705 22.9074 39.1815 32.9237 38.9519L48.9995 11.5077Z" fill="#BBF0D1"/>
</g>
<g filter="url(#filter2_d_75_252)">
<path d="M52.9996 13.1445C53.0372 12.7506 50.4195 11.1831 39.6485 8.06489C26.1847 4.16708 27.086 11.942 23.6497 15.7568C20.2133 19.5717 9.03105 19.5924 7.5382 23.1378C6.04535 26.6831 0.383802 26.7039 7.5382 30.0833C13.2617 32.7869 31.3299 33.1311 39.6485 32.9652L52.9996 13.1445Z" fill="#DEF8E9"/>
</g>
<path d="M16.8041 24.5432C15.1519 24.5432 13.692 24.1811 12.4245 23.4568C11.1571 22.7099 10.1725 21.6688 9.47089 20.3334C8.76926 18.9754 8.41844 17.3797 8.41844 15.5464C8.41844 13.9621 8.76926 12.4796 9.47089 11.099C10.1725 9.71837 11.1571 8.60933 12.4245 7.7719C13.7146 6.91183 15.2084 6.4818 16.9059 6.4818C17.8565 6.4818 18.7845 6.6176 19.6898 6.8892C20.5952 7.13817 21.41 7.57952 22.1342 8.21325C22.8811 8.84698 23.4696 9.70705 23.8996 10.7934C24.3523 11.8798 24.5673 13.2378 24.5447 14.8674L13.4091 15.0711C13.4091 16.2933 13.5562 17.3911 13.8504 18.3643C14.1673 19.3375 14.6766 20.1071 15.3782 20.6729C16.0798 21.2387 17.0191 21.5216 18.196 21.5216C18.6487 21.5216 19.158 21.4424 19.7238 21.284C20.3123 21.1256 20.9007 20.8653 21.4892 20.5031C22.1003 20.1184 22.6661 19.6091 23.1867 18.9754L24.7144 20.4013C23.8996 21.5556 23.0283 22.4383 22.1003 23.0494C21.1723 23.6379 20.2444 24.034 19.3164 24.2377C18.4111 24.4414 17.5736 24.5432 16.8041 24.5432ZM13.6128 12.6946H19.8596C19.837 11.744 19.7012 10.9971 19.4522 10.4539C19.2259 9.88812 18.909 9.48072 18.5016 9.23175C18.0942 8.98278 17.6189 8.8583 17.0757 8.8583C16.0798 8.8583 15.299 9.22043 14.7331 9.9447C14.1673 10.6463 13.7939 11.563 13.6128 12.6946Z" fill="#323232"/>
<mask id="mask1_75_252" style="mask-type:alpha" maskUnits="userSpaceOnUse" x="23" y="24" width="4" height="4">
<path d="M23 26C23 24.6745 23 24.6667 25 24.6667C27 24.6667 27 24.6745 27 26C27 27.3255 27 27.3333 25 27.3333C23 27.3333 23 27.3255 23 26Z" fill="#D9D9D9"/>
</mask>
<g mask="url(#mask1_75_252)">
<rect x="27" y="26" width="4" height="1.33333" transform="rotate(-180 27 26)" fill="#4744E4"/>
<rect x="27" y="27.3333" width="4" height="1.33333" transform="rotate(-180 27 27.3333)" fill="#F9E95D"/>
</g>
</g>
<defs>
<filter id="filter0_d_75_252" x="-25" y="-7" width="81" height="52" filterUnits="userSpaceOnUse" color-interpolation-filters="sRGB">
<feFlood flood-opacity="0" result="BackgroundImageFix"/>
<feColorMatrix in="SourceAlpha" type="matrix" values="0 0 0 0 0 0 0 0 0 0 0 0 0 0 0 0 0 0 127 0" result="hardAlpha"/>
<feOffset/>
<feGaussianBlur stdDeviation="3.5"/>
<feComposite in2="hardAlpha" operator="out"/>
<feColorMatrix type="matrix" values="0 0 0 0 0.100278 0 0 0 0 0.316667 0 0 0 0 0.192079 0 0 0 0.35 0"/>
<feBlend mode="normal" in2="BackgroundImageFix" result="effect1_dropShadow_75_252"/>
<feBlend mode="normal" in="SourceGraphic" in2="effect1_dropShadow_75_252" result="shape"/>
</filter>
<filter id="filter1_d_75_252" x="-17" y="-4" width="73" height="50" filterUnits="userSpaceOnUse" color-interpolation-filters="sRGB">
<feFlood flood-opacity="0" result="BackgroundImageFix"/>
<feColorMatrix in="SourceAlpha" type="matrix" values="0 0 0 0 0 0 0 0 0 0 0 0 0 0 0 0 0 0 127 0" result="hardAlpha"/>
<feOffset/>
<feGaussianBlur stdDeviation="3.5"/>
<feComposite in2="hardAlpha" operator="out"/>
<feColorMatrix type="matrix" values="0 0 0 0 0.100278 0 0 0 0 0.316667 0 0 0 0 0.192079 0 0 0 0.35 0"/>
<feBlend mode="normal" in2="BackgroundImageFix" result="effect1_dropShadow_75_252"/>
<feBlend mode="normal" in="SourceGraphic" in2="effect1_dropShadow_75_252" result="shape"/>
</filter>
<filter id="filter2_d_75_252" x="-3" y="3.8147e-06" width="63" height="40" filterUnits="userSpaceOnUse" color-interpolation-filters="sRGB">
<feFlood flood-opacity="0" result="BackgroundImageFix"/>
<feColorMatrix in="SourceAlpha" type="matrix" values="0 0 0 0 0 0 0 0 0 0 0 0 0 0 0 0 0 0 127 0" result="hardAlpha"/>
<feOffset/>
<feGaussianBlur stdDeviation="3.5"/>
<feComposite in2="hardAlpha" operator="out"/>
<feColorMatrix type="matrix" values="0 0 0 0 0.100278 0 0 0 0 0.316667 0 0 0 0 0.192079 0 0 0 0.35 0"/>
<feBlend mode="normal" in2="BackgroundImageFix" result="effect1_dropShadow_75_252"/>
<feBlend mode="normal" in="SourceGraphic" in2="effect1_dropShadow_75_252" result="shape"/>
</filter>
</defs>
</svg>
