<svg width="64" height="64" viewBox="0 0 64 64" fill="none" xmlns="http://www.w3.org/2000/svg">
<mask id="mask0_76_161" style="mask-type:alpha" maskUnits="userSpaceOnUse" x="4" y="4" width="56" height="56">
<path d="M60 32C60 60 60 60 32 60C4 60 4 60 4 32C4 4 4 4 32 4C60 4 60 4 60 32Z" fill="white"/>
</mask>
<g mask="url(#mask0_76_161)">
<path d="M60 32C60 60 60 60 32 60C4 60 4 60 4 32C4 4 4 4 32 4C60 4 60 4 60 32Z" fill="white"/>
<g filter="url(#filter0_d_76_161)">
<path d="M86.9991 12.6522C87.0827 11.7129 81.2597 7.97517 57.2997 0.539349C27.3496 -8.75543 29.3547 9.78468 21.7105 18.8817C14.0663 27.9787 -10.8085 28.0281 -14.1293 36.4824C-17.4501 44.9367 -30.0442 44.9861 -14.1293 53.0449C-1.39741 59.4919 38.795 60.3126 57.2997 59.9171L86.9991 12.6522Z" fill="#23CE6B"/>
</g>
<g filter="url(#filter1_d_76_161)">
<path d="M83.9992 23.9432C84.0728 23.0493 78.9444 19.4925 57.8419 12.4165C31.4639 3.57145 33.2298 21.2145 26.4973 29.8713C19.7649 38.5281 -2.14326 38.5751 -5.06802 46.6204C-7.99278 54.6656 -19.0848 54.7126 -5.06802 62.3814C6.1454 68.5165 41.5442 69.2975 57.8419 68.9211L83.9992 23.9432Z" fill="#BBF0D1"/>
</g>
<g filter="url(#filter2_d_76_161)">
<path d="M89.9994 27.9257C90.0607 27.2894 85.787 24.7574 68.2016 19.7202C46.2199 13.4237 47.6915 25.9832 42.0811 32.1457C36.4707 38.3082 18.214 38.3416 15.7767 44.0687C13.3394 49.7958 4.096 49.8293 15.7767 55.2885C25.1212 59.6558 54.6202 60.2118 68.2016 59.9439L89.9994 27.9257Z" fill="#DEF8E9"/>
</g>
<path d="M32.0728 49.0232C28.9606 49.0232 26.2107 48.3411 23.8233 46.9768C21.4358 45.5699 19.5812 43.6088 18.2596 41.0934C16.938 38.5354 16.2772 35.5297 16.2772 32.0764C16.2772 29.0921 16.938 26.2996 18.2596 23.699C19.5812 21.0984 21.4358 19.0093 23.8233 17.4319C26.2534 15.8118 29.0672 15.0018 32.2647 15.0018C34.0553 15.0018 35.8032 15.2576 37.5086 15.7692C39.2139 16.2382 40.7487 17.0695 42.113 18.2632C43.5199 19.457 44.6283 21.077 45.4384 23.1234C46.291 25.1698 46.696 27.7278 46.6534 30.7974L25.6778 31.1811C25.6778 33.4833 25.9549 35.5511 26.5092 37.3843C27.106 39.2175 28.0653 40.6671 29.3869 41.7329C30.7085 42.7987 32.4778 43.3316 34.6948 43.3316C35.5474 43.3316 36.5067 43.1824 37.5725 42.884C38.681 42.5856 39.7894 42.0953 40.8979 41.4131C42.049 40.6884 43.1148 39.7291 44.0954 38.5354L46.9732 41.2213C45.4384 43.3956 43.797 45.0583 42.049 46.2094C40.301 47.3179 38.5531 48.064 36.8051 48.4477C35.0998 48.8314 33.5223 49.0232 32.0728 49.0232ZM26.0615 26.7046H37.8283C37.7857 24.914 37.5299 23.5071 37.0609 22.4839C36.6346 21.4181 36.0377 20.6507 35.2703 20.1817C34.5029 19.7128 33.6076 19.4783 32.5844 19.4783C30.7085 19.4783 29.2377 20.1604 28.1719 21.5247C27.106 22.8463 26.4026 24.573 26.0615 26.7046Z" fill="#323232"/>
<mask id="mask1_76_161" style="mask-type:alpha" maskUnits="userSpaceOnUse" x="45" y="48" width="8" height="6">
<path d="M45 51C45 48.349 45 48.3333 49 48.3333C53 48.3333 53 48.349 53 51C53 53.651 53 53.6667 49 53.6667C45 53.6667 45 53.651 45 51Z" fill="#D9D9D9"/>
</mask>
<g mask="url(#mask1_76_161)">
<rect x="53" y="51" width="8" height="2.66667" transform="rotate(-180 53 51)" fill="#4744E4"/>
<rect x="53" y="53.6667" width="8" height="2.66667" transform="rotate(-180 53 53.6667)" fill="#F9E95D"/>
</g>
</g>
<defs>
<filter id="filter0_d_76_161" x="-29" y="-8.99999" width="123" height="76" filterUnits="userSpaceOnUse" color-interpolation-filters="sRGB">
<feFlood flood-opacity="0" result="BackgroundImageFix"/>
<feColorMatrix in="SourceAlpha" type="matrix" values="0 0 0 0 0 0 0 0 0 0 0 0 0 0 0 0 0 0 127 0" result="hardAlpha"/>
<feOffset/>
<feGaussianBlur stdDeviation="3.5"/>
<feComposite in2="hardAlpha" operator="out"/>
<feColorMatrix type="matrix" values="0 0 0 0 0.100278 0 0 0 0 0.316667 0 0 0 0 0.192079 0 0 0 0.35 0"/>
<feBlend mode="normal" in2="BackgroundImageFix" result="effect1_dropShadow_76_161"/>
<feBlend mode="normal" in="SourceGraphic" in2="effect1_dropShadow_76_161" result="shape"/>
</filter>
<filter id="filter1_d_76_161" x="-19" y="3.00001" width="110" height="73" filterUnits="userSpaceOnUse" color-interpolation-filters="sRGB">
<feFlood flood-opacity="0" result="BackgroundImageFix"/>
<feColorMatrix in="SourceAlpha" type="matrix" values="0 0 0 0 0 0 0 0 0 0 0 0 0 0 0 0 0 0 127 0" result="hardAlpha"/>
<feOffset/>
<feGaussianBlur stdDeviation="3.5"/>
<feComposite in2="hardAlpha" operator="out"/>
<feColorMatrix type="matrix" values="0 0 0 0 0.100278 0 0 0 0 0.316667 0 0 0 0 0.192079 0 0 0 0.35 0"/>
<feBlend mode="normal" in2="BackgroundImageFix" result="effect1_dropShadow_76_161"/>
<feBlend mode="normal" in="SourceGraphic" in2="effect1_dropShadow_76_161" result="shape"/>
</filter>
<filter id="filter2_d_76_161" x="3.00001" y="11" width="94" height="56" filterUnits="userSpaceOnUse" color-interpolation-filters="sRGB">
<feFlood flood-opacity="0" result="BackgroundImageFix"/>
<feColorMatrix in="SourceAlpha" type="matrix" values="0 0 0 0 0 0 0 0 0 0 0 0 0 0 0 0 0 0 127 0" result="hardAlpha"/>
<feOffset/>
<feGaussianBlur stdDeviation="3.5"/>
<feComposite in2="hardAlpha" operator="out"/>
<feColorMatrix type="matrix" values="0 0 0 0 0.100278 0 0 0 0 0.316667 0 0 0 0 0.192079 0 0 0 0.35 0"/>
<feBlend mode="normal" in2="BackgroundImageFix" result="effect1_dropShadow_76_161"/>
<feBlend mode="normal" in="SourceGraphic" in2="effect1_dropShadow_76_161" result="shape"/>
</filter>
</defs>
</svg>
