<svg width="24" height="25" viewBox="0 0 24 25" fill="none" xmlns="http://www.w3.org/2000/svg">
<g clip-path="url(#clip0_7_100)">
<path d="M24 12.5C24 15.6826 22.7357 18.7348 20.4853 20.9853C18.2348 23.2357 15.1826 24.5 12 24.5C8.8174 24.5 5.76516 23.2357 3.51472 20.9853C1.26428 18.7348 0 15.6826 0 12.5C0 9.3174 1.26428 6.26516 3.51472 4.01472C5.76516 1.76428 8.8174 0.5 12 0.5C15.1826 0.5 18.2348 1.76428 20.4853 4.01472C22.7357 6.26516 24 9.3174 24 12.5ZM18.045 7.955C17.9379 7.84823 17.8103 7.76416 17.6699 7.70782C17.5295 7.65149 17.3792 7.62404 17.228 7.62712C17.0768 7.6302 16.9277 7.66375 16.7897 7.72575C16.6518 7.78776 16.5277 7.87695 16.425 7.988L11.2155 14.6255L8.076 11.4845C7.86274 11.2858 7.58067 11.1776 7.28922 11.1827C6.99776 11.1879 6.71969 11.3059 6.51357 11.5121C6.30745 11.7182 6.18938 11.9963 6.18424 12.2877C6.1791 12.5792 6.28728 12.8612 6.486 13.0745L10.455 17.045C10.5619 17.1517 10.6892 17.2358 10.8294 17.2923C10.9695 17.3487 11.1196 17.3764 11.2706 17.3736C11.4217 17.3708 11.5706 17.3376 11.7085 17.276C11.8465 17.2144 11.9706 17.1256 12.0735 17.015L18.0615 9.53C18.2656 9.31775 18.3784 9.03391 18.3756 8.73944C18.3728 8.44496 18.2546 8.16332 18.0465 7.955H18.045Z" fill="#23CE6B"/>
</g>
<defs>
<clipPath id="clip0_7_100">
<rect width="24" height="24" fill="white" transform="translate(0 0.5)"/>
</clipPath>
</defs>
</svg>
