<svg width="24" height="25" viewBox="0 0 24 25" fill="none" xmlns="http://www.w3.org/2000/svg">
<g clip-path="url(#clip0_7_98)">
<path d="M24 12.5C24 15.6826 22.7357 18.7348 20.4853 20.9853C18.2348 23.2357 15.1826 24.5 12 24.5C8.8174 24.5 5.76516 23.2357 3.51472 20.9853C1.26428 18.7348 0 15.6826 0 12.5C0 9.3174 1.26428 6.26516 3.51472 4.01472C5.76516 1.76428 8.8174 0.5 12 0.5C15.1826 0.5 18.2348 1.76428 20.4853 4.01472C22.7357 6.26516 24 9.3174 24 12.5ZM8.031 7.469C7.89017 7.32817 7.69916 7.24905 7.5 7.24905C7.30084 7.24905 7.10983 7.32817 6.969 7.469C6.82817 7.60983 6.74905 7.80084 6.74905 8C6.74905 8.19916 6.82817 8.39017 6.969 8.531L10.9395 12.5L6.969 16.469C6.89927 16.5387 6.84395 16.6215 6.80621 16.7126C6.76848 16.8037 6.74905 16.9014 6.74905 17C6.74905 17.0986 6.76848 17.1963 6.80621 17.2874C6.84395 17.3785 6.89927 17.4613 6.969 17.531C7.10983 17.6718 7.30084 17.7509 7.5 17.7509C7.59862 17.7509 7.69627 17.7315 7.78738 17.6938C7.87848 17.656 7.96127 17.6007 8.031 17.531L12 13.5605L15.969 17.531C16.0387 17.6007 16.1215 17.656 16.2126 17.6938C16.3037 17.7315 16.4014 17.7509 16.5 17.7509C16.5986 17.7509 16.6963 17.7315 16.7874 17.6938C16.8785 17.656 16.9613 17.6007 17.031 17.531C17.1007 17.4613 17.156 17.3785 17.1938 17.2874C17.2315 17.1963 17.2509 17.0986 17.2509 17C17.2509 16.9014 17.2315 16.8037 17.1938 16.7126C17.156 16.6215 17.1007 16.5387 17.031 16.469L13.0605 12.5L17.031 8.531C17.1007 8.46127 17.156 8.37848 17.1938 8.28738C17.2315 8.19627 17.2509 8.09862 17.2509 8C17.2509 7.90138 17.2315 7.80373 17.1938 7.71262C17.156 7.62152 17.1007 7.53873 17.031 7.469C16.9613 7.39927 16.8785 7.34395 16.7874 7.30621C16.6963 7.26848 16.5986 7.24905 16.5 7.24905C16.4014 7.24905 16.3037 7.26848 16.2126 7.30621C16.1215 7.34395 16.0387 7.39927 15.969 7.469L12 11.4395L8.031 7.469Z" fill="#BB2D2A"/>
</g>
<defs>
<clipPath id="clip0_7_98">
<rect width="24" height="24" fill="white" transform="translate(0 0.5)"/>
</clipPath>
</defs>
</svg>
